<svg xmlns="http://www.w3.org/2000/svg" viewBox="0 0 1280 560" font-family="Helvetica, Arial, sans-serif">
  <!-- ===== connecting lines ===== -->
  <g stroke="#dfe7ee" stroke-width="1.6" fill="none" opacity="0.8">
    <path d="M318,150 L540,258"/>
    <path d="M318,280 L540,280"/>
    <path d="M318,410 L540,302"/>
    <path d="M698,258 L965,195"/>
    <path d="M698,302 L965,375"/>
  </g>

  <!-- ===== cylinders (white line-art) ===== -->
  <g stroke="#eef3f7" stroke-width="2.2" fill="#ffffff" fill-opacity="0.04">
    <!-- left source cylinders (opening right) -->
    <path d="M130,114 A18,36 0 0 0 130,186"/><line x1="130" y1="114" x2="300" y2="114"/><line x1="130" y1="186" x2="300" y2="186"/><ellipse cx="300" cy="150" rx="18" ry="36"/>
    <path d="M130,244 A18,36 0 0 0 130,316"/><line x1="130" y1="244" x2="300" y2="244"/><line x1="130" y1="316" x2="300" y2="316"/><ellipse cx="300" cy="280" rx="18" ry="36"/>
    <path d="M130,374 A18,36 0 0 0 130,446"/><line x1="130" y1="374" x2="300" y2="374"/><line x1="130" y1="446" x2="300" y2="446"/><ellipse cx="300" cy="410" rx="18" ry="36"/>
    <!-- center store (vertical) -->
    <ellipse cx="620" cy="185" rx="78" ry="24"/>
    <line x1="542" y1="185" x2="542" y2="375"/><line x1="698" y1="185" x2="698" y2="375"/>
    <path d="M542,375 A78,24 0 0 0 698,375"/>
    <!-- right output cylinders (opening left) -->
    <path d="M1155,155 A20,40 0 0 1 1155,235"/><line x1="985" y1="155" x2="1155" y2="155"/><line x1="985" y1="235" x2="1155" y2="235"/><ellipse cx="985" cy="195" rx="20" ry="40"/>
    <path d="M1155,335 A20,40 0 0 1 1155,415"/><line x1="985" y1="335" x2="1155" y2="335"/><line x1="985" y1="415" x2="1155" y2="415"/><ellipse cx="985" cy="375" rx="20" ry="40"/>
  </g>

  <!-- ===== data marks ===== -->
  <g fill="#f4f8fb" opacity="0.95">
    <!-- L1: dashes -->
    <rect x="180" y="148" width="16" height="4" rx="2"/><rect x="206" y="148" width="16" height="4" rx="2"/><rect x="232" y="148" width="16" height="4" rx="2"/>
    <!-- L2: dots -->
    <circle cx="190" cy="280" r="3.4"/><circle cx="216" cy="280" r="3.4"/><circle cx="242" cy="280" r="3.4"/>
    <!-- L3: dashes -->
    <rect x="180" y="408" width="16" height="4" rx="2"/><rect x="206" y="408" width="16" height="4" rx="2"/><rect x="232" y="408" width="16" height="4" rx="2"/>

    <!-- center grid 3x3 -->
    <rect x="584" y="243" width="18" height="4" rx="2"/><rect x="611" y="243" width="18" height="4" rx="2"/><rect x="638" y="243" width="18" height="4" rx="2"/>
    <circle cx="593" cy="283" r="3.6"/><circle cx="620" cy="283" r="3.6"/><circle cx="647" cy="283" r="3.6"/>
    <circle cx="593" cy="321" r="3.6"/><circle cx="620" cy="321" r="3.6"/><circle cx="647" cy="321" r="3.6"/>

    <!-- R1: dashes / dots / squares -->
    <rect x="1040" y="171" width="16" height="4" rx="2"/><rect x="1064" y="171" width="16" height="4" rx="2"/><rect x="1088" y="171" width="16" height="4" rx="2"/>
    <circle cx="1048" cy="195" r="3.4"/><circle cx="1072" cy="195" r="3.4"/><circle cx="1096" cy="195" r="3.4"/>
    <rect x="1044" y="213" width="8" height="8" rx="1.5"/><rect x="1068" y="213" width="8" height="8" rx="1.5"/><rect x="1092" y="213" width="8" height="8" rx="1.5"/>
    <!-- R2: dashes / dots / squares -->
    <rect x="1040" y="351" width="16" height="4" rx="2"/><rect x="1064" y="351" width="16" height="4" rx="2"/><rect x="1088" y="351" width="16" height="4" rx="2"/>
    <circle cx="1048" cy="375" r="3.4"/><circle cx="1072" cy="375" r="3.4"/><circle cx="1096" cy="375" r="3.4"/>
    <rect x="1044" y="393" width="8" height="8" rx="1.5"/><rect x="1068" y="393" width="8" height="8" rx="1.5"/><rect x="1092" y="393" width="8" height="8" rx="1.5"/>
  </g>
</svg>
