<svg xmlns="http://www.w3.org/2000/svg" viewBox="0 0 856 372" preserveAspectRatio="xMidYMid meet">
  <g transform="translate(0,372) scale(0.1,-0.1)" fill="#FF8236" stroke="none">
    <path d="M7127 2909 c-208 -49 -328 -292 -344 -694 l-6 -150 30 25 c17 14 57
47 89 73 60 49 177 114 246 136 49 16 53 25 30 64 -32 52 -55 142 -47 188 4
22 36 101 71 175 66 138 76 177 48 188 -21 8 -70 6 -117 -5z"/>
<path d="M5726 2853 c-3 -10 -107 -457 -231 -993 -124 -536 -230 -990 -235
-1008 l-9 -32 182 2 182 3 31 141 c17 78 34 154 38 168 l6 26 180 0 180 0 6
-26 c4 -14 21 -90 38 -168 l31 -141 183 -3 c100 -1 182 0 182 3 0 2 -106 462
-235 1021 -129 559 -235 1018 -235 1020 0 2 -65 4 -144 4 -129 0 -145 -2 -150
-17z m202 -1050 c29 -164 52 -301 52 -305 0 -5 -49 -8 -110 -8 -60 0 -110 3
-110 8 -1 21 105 602 110 602 3 0 29 -134 58 -297z"/>
<path d="M780 1840 l0 -1020 405 0 405 0 0 175 0 175 -215 0 -215 0 0 845 0
845 -190 0 -190 0 0 -1020z"/>
<path d="M1770 1840 l0 -1020 405 0 405 0 0 175 0 175 -220 0 -220 0 0 845 0
845 -185 0 -185 0 0 -1020z"/>
<path d="M3806 2768 c-3 -51 -12 -421 -21 -823 -8 -401 -18 -819 -22 -927 l-6
-198 180 0 180 0 6 293 c4 160 7 380 8 487 0 107 3 203 7 212 5 11 52 -93 142
-308 l135 -324 34 2 35 3 125 317 c69 174 129 319 132 323 4 3 9 -146 13 -332
3 -186 9 -413 12 -506 l6 -167 179 0 c164 0 179 1 179 18 0 9 -11 458 -25 997
-14 539 -25 990 -25 1003 0 21 -3 22 -98 22 l-99 0 -213 -500 c-117 -276 -217
-497 -220 -493 -4 4 -106 230 -226 500 l-219 493 -97 0 -96 0 -6 -92z"/>
<path d="M7495 2781 c-50 -23 -125 -103 -158 -167 -24 -47 -68 -183 -82 -252
l-7 -33 39 8 c21 4 99 8 173 8 l136 0 -23 55 c-13 33 -23 76 -23 107 0 48 5
60 63 145 73 107 80 121 64 137 -18 18 -137 13 -182 -8z"/>
<path d="M7274 2205 c-227 -49 -431 -209 -538 -422 -14 -28 -38 -91 -52 -140
-23 -74 -27 -107 -27 -213 0 -109 3 -135 26 -205 107 -322 441 -480 812 -385
93 24 225 83 225 101 0 7 -9 45 -19 83 -11 39 -25 90 -31 113 l-10 42 -73 -34
c-110 -51 -187 -67 -292 -63 -150 6 -248 65 -307 186 -28 57 -33 78 -36 162
-3 71 0 113 13 156 69 240 277 393 504 370 79 -8 171 -38 234 -77 26 -16 51
-29 55 -29 12 1 134 221 129 234 -9 22 -167 94 -254 115 -96 25 -262 27 -359
6z"/>
<path d="M2970 2154 c-98 -19 -180 -47 -180 -63 0 -32 30 -254 35 -259 2 -3
35 3 72 13 80 22 215 25 262 6 46 -20 62 -59 68 -167 3 -52 4 -94 1 -94 -3 0
-32 12 -64 28 -79 37 -204 38 -276 3 -102 -50 -178 -172 -199 -323 -37 -266
95 -493 286 -491 78 0 135 26 208 93 l57 52 0 -66 0 -66 161 0 160 0 -3 523
c-4 454 -6 529 -21 572 -36 111 -112 187 -222 222 -49 15 -289 27 -345 17z
m223 -719 l37 -6 0 -175 0 -174 -26 -10 c-44 -17 -109 -12 -138 11 -46 36 -59
75 -59 171 0 72 5 94 24 130 24 43 70 70 108 62 9 -2 33 -6 54 -9z"/>
<path d="M7410 1685 l0 -85 -80 0 -80 0 0 -75 0 -75 80 0 79 0 3 -87 3 -88 78
-3 77 -3 0 91 0 90 80 0 80 0 0 75 0 75 -80 0 -80 0 0 85 0 85 -80 0 -80 0 0
-85z"/>
<path d="M7970 1685 l0 -85 -80 0 -80 0 0 -75 0 -75 80 0 80 0 0 -90 0 -91 78
3 77 3 3 88 3 87 79 0 80 0 0 75 0 75 -80 0 -80 0 0 85 0 85 -80 0 -80 0 0
-85z"/>
  </g>
  <g transform="translate(0,372) scale(0.1,-0.1)" fill="#ffffff" stroke="none">
    <path d="M780 1845 l0 -1025 410 0 410 0 0 175 0 175 -220 0 -220 0 0 850 0
850 -190 0 -190 0 0 -1025z"/>
<path d="M1767 2864 c-4 -4 -7 -466 -7 -1026 l0 -1018 410 0 410 0 0 175 0
175 -215 0 -215 0 -2 848 -3 847 -186 3 c-102 1 -188 -1 -192 -4z"/>
<path d="M3843 2863 l-43 -4 0 -82 c0 -45 -9 -446 -20 -892 -11 -445 -20 -867
-20 -937 l0 -128 179 0 178 0 7 92 c3 50 7 204 7 342 1 138 4 321 8 405 l6
155 132 -315 131 -314 40 -3 39 -3 123 310 c68 171 127 308 131 305 5 -3 9
-71 9 -152 0 -81 3 -299 7 -484 l6 -338 184 0 183 0 -1 143 c-1 255 -44 1885
-49 1891 -4 3 -49 8 -102 12 l-95 7 -214 -501 c-122 -287 -217 -496 -221 -489
-4 7 -105 231 -225 500 l-218 487 -60 -2 c-33 -1 -79 -3 -102 -5z"/>
<path d="M5491 1863 c-129 -555 -236 -1016 -239 -1025 -4 -17 9 -18 181 -18
l185 0 20 88 c11 48 28 124 38 169 l17 83 177 0 176 0 37 -166 c20 -92 38
-169 40 -171 2 -2 87 -2 189 -1 l184 3 -236 1020 -235 1020 -150 3 -150 2
-234 -1007z m435 -78 l50 -285 -107 0 -106 0 18 98 c9 53 32 181 50 285 18
103 35 187 38 187 4 0 29 -128 57 -285z"/>
<path d="M2965 2155 c-124 -23 -186 -45 -181 -63 2 -9 10 -71 17 -137 6 -66
15 -123 18 -127 3 -4 40 2 81 12 90 23 207 26 256 5 47 -19 64 -63 64 -164 l0
-80 -47 21 c-71 32 -212 37 -275 9 -137 -59 -218 -213 -218 -414 0 -363 267
-537 503 -326 l57 51 0 -61 0 -61 160 0 160 0 0 513 c0 540 -2 563 -47 652
-29 56 -83 108 -139 135 -99 46 -270 61 -409 35z m229 -725 l26 -10 0 -170 0
-170 -27 -7 c-125 -32 -191 42 -181 203 7 110 48 163 125 164 17 0 43 -4 57
-10z"/>
  </g>
</svg>
