<svg xmlns="http://www.w3.org/2000/svg" viewBox="0 0 579 525" preserveAspectRatio="xMidYMid meet">
  <g transform="translate(0,525) scale(0.1,-0.1)" fill="#3078E2" stroke="none">
    <path d="M2850 5240 c-33 -6 -163 -66 -553 -254 -87 -42 -190 -92 -230 -110
-40 -19 -135 -64 -212 -101 -77 -37 -187 -90 -245 -117 -107 -50 -160 -90
-187 -141 -14 -27 -58 -211 -187 -777 -30 -129 -77 -335 -105 -458 -63 -272
-62 -296 19 -397 61 -77 88 -111 152 -190 80 -100 360 -447 566 -703 159 -198
192 -231 251 -251 54 -18 1513 -15 1564 3 48 17 63 31 147 131 141 169 832
1037 850 1068 38 63 35 106 -15 322 -25 110 -71 306 -100 435 -30 129 -75 325
-100 435 -25 110 -53 232 -62 270 -9 39 -24 86 -33 105 -39 78 -36 76 -550
320 -338 160 -374 177 -565 270 -295 142 -330 154 -405 140z m80 -465 c40 -21
45 -48 31 -182 -11 -101 -11 -117 3 -138 9 -13 16 -31 16 -39 0 -9 16 -16 48
-20 185 -27 386 -121 530 -251 40 -36 56 -45 65 -36 6 6 21 11 34 11 15 0 55
30 117 90 78 74 101 90 126 90 33 0 80 -38 80 -64 0 -30 -24 -66 -59 -89 -20
-13 -69 -45 -108 -70 -43 -28 -73 -54 -73 -64 0 -9 -6 -24 -14 -32 -13 -14
-11 -22 15 -64 44 -71 95 -202 114 -291 10 -49 16 -129 16 -205 0 -132 -2
-126 54 -166 11 -8 65 -19 120 -26 123 -13 152 -24 171 -61 19 -37 2 -76 -41
-97 -27 -13 -37 -11 -140 24 -94 33 -117 37 -159 31 -37 -6 -50 -12 -54 -28
-3 -11 -24 -59 -47 -107 -72 -147 -167 -260 -305 -364 -90 -69 -91 -88 -4
-234 35 -59 64 -117 64 -129 0 -34 -37 -74 -69 -74 -46 0 -77 33 -101 108 -37
113 -60 158 -90 180 l-29 22 -95 -25 c-174 -45 -350 -43 -520 6 l-72 21 -37
-33 c-30 -26 -43 -50 -63 -113 -14 -44 -35 -97 -46 -118 -33 -58 -94 -65 -131
-15 -19 25 -20 30 -8 65 8 20 31 62 51 92 53 79 71 116 69 147 -1 16 0 33 2
39 2 6 -25 33 -61 59 -87 63 -161 136 -219 215 -51 68 -125 206 -136 251 -6
24 -13 28 -59 33 -45 6 -67 2 -152 -29 -115 -41 -132 -42 -168 -14 -35 27 -36
77 -2 108 20 18 46 25 141 37 98 12 123 19 147 39 16 14 34 25 39 25 6 0 7 5
4 11 -11 17 -8 219 5 289 19 111 64 236 119 329 25 42 28 51 15 62 -8 6 -14
17 -14 25 0 19 -44 57 -116 99 -92 54 -114 77 -114 120 0 44 29 75 71 75 24 0
48 -17 125 -90 62 -60 102 -90 117 -90 13 0 28 -5 34 -11 9 -9 28 3 78 48 129
117 294 197 471 230 88 17 91 18 108 54 19 39 19 37 0 221 -6 65 -6 68 24 97
35 35 42 37 82 16z"/>
<path d="M2705 4179 c-98 -24 -221 -84 -298 -145 -48 -38 -56 -49 -45 -59 43
-42 334 -235 353 -235 47 0 61 37 69 177 3 70 9 163 13 206 3 43 2 77 -3 76
-5 0 -45 -9 -89 -20z"/>
<path d="M2996 4123 c3 -43 9 -139 13 -213 8 -121 11 -136 31 -152 33 -26 51
-23 118 25 34 23 109 75 167 116 58 41 108 78 111 82 8 13 -125 107 -201 144
-62 29 -113 46 -217 69 l-27 6 5 -77z"/>
<path d="M2191 3760 c-51 -115 -71 -203 -71 -312 0 -67 4 -98 11 -98 12 0 159
41 307 86 90 28 118 53 107 96 -4 14 -69 80 -160 161 -84 75 -155 137 -158
137 -2 0 -18 -32 -36 -70z"/>
<path d="M3460 3743 c-52 -47 -121 -109 -152 -138 -61 -54 -73 -90 -45 -128
10 -15 367 -127 405 -127 28 0 5 214 -36 330 -23 65 -64 150 -71 150 -4 -1
-49 -39 -101 -87z"/>
<path d="M2801 3503 c-42 -50 -42 -47 -20 -134 8 -32 16 -39 65 -59 l56 -23
52 26 c51 25 53 27 64 83 l12 57 -37 48 c-37 49 -38 49 -94 49 -56 0 -58 -1
-98 -47z"/>
<path d="M2490 3213 c-14 -2 -94 -16 -178 -31 l-154 -28 40 -76 c52 -102 121
-188 200 -254 66 -54 82 -63 82 -44 0 5 11 33 24 62 74 165 126 299 126 324 0
8 -9 23 -20 34 -20 20 -55 23 -120 13z"/>
<path d="M3181 3201 c-11 -11 -21 -27 -21 -33 0 -23 155 -398 164 -398 28 0
172 143 225 224 32 50 85 156 79 161 -7 5 -309 57 -364 62 -54 5 -64 3 -83
-16z"/>
<path d="M2847 3042 c-10 -10 -17 -22 -17 -26 0 -3 -41 -79 -91 -168 -69 -122
-87 -163 -77 -169 50 -32 290 -44 398 -20 86 18 87 21 53 82 -17 30 -50 90
-73 134 -93 174 -102 185 -153 185 -13 0 -31 -8 -40 -18z"/>
<path d="M77 852 l-77 -14 2 -406 3 -407 79 0 78 0 -1 123 c-1 73 2 122 8 122
14 0 74 -73 138 -167 l57 -83 88 0 c48 0 88 3 88 7 0 26 -111 184 -183 260
l-49 52 112 126 112 125 -95 0 -94 0 -82 -95 c-46 -52 -87 -95 -92 -95 -6 0
-9 93 -9 231 1 127 0 232 -2 233 -2 2 -38 -4 -81 -12z"/>
<path d="M1338 852 l-78 -14 0 -398 0 -399 58 -13 c31 -7 104 -13 162 -13 95
0 110 3 163 29 67 32 107 80 133 158 24 74 15 211 -18 276 -49 96 -163 147
-271 121 -29 -7 -54 -13 -57 -13 -3 -1 -7 62 -10 139 l-5 141 -77 -14z m237
-400 c38 -32 46 -51 51 -119 5 -58 2 -75 -18 -113 -29 -56 -57 -71 -128 -68
l-55 3 -3 147 -3 146 28 10 c44 16 106 14 128 -6z"/>
<path d="M4337 747 l-58 -9 3 -287 c3 -277 4 -288 26 -334 33 -67 91 -99 186
-104 44 -3 88 1 116 10 49 14 50 20 35 104 l-6 31 -58 -5 c-124 -11 -141 12
-141 192 l0 115 100 0 100 0 0 65 0 64 -97 3 -98 3 -3 83 c-3 93 4 88 -105 69z"/>
<path d="M2066 590 c-130 -51 -199 -203 -166 -361 19 -88 62 -147 134 -184 56
-28 67 -30 170 -30 64 1 127 6 149 14 l38 13 -6 47 c-9 71 -15 83 -33 75 -33
-13 -179 -17 -216 -4 -39 13 -76 52 -76 81 0 18 11 19 183 19 l183 0 3 41 c3
59 -17 147 -44 194 -58 100 -199 142 -319 95z m170 -144 c19 -19 34 -43 34
-55 0 -20 -5 -21 -106 -21 l-106 0 7 28 c20 82 111 108 171 48z"/>
<path d="M2695 599 c-27 -5 -70 -14 -95 -22 l-45 -13 0 -269 0 -270 78 0 79 0
-2 217 -1 217 38 7 c21 4 63 3 94 -2 l57 -10 6 36 c3 19 8 49 12 66 l6 32 -64
11 c-72 12 -91 12 -163 0z"/>
<path d="M3106 595 c-43 -7 -83 -18 -87 -22 -5 -5 -8 -130 -7 -279 l3 -269 77
-3 78 -3 2 223 3 223 34 3 c55 5 100 -7 113 -31 9 -15 15 -87 18 -217 l5 -195
78 -3 77 -3 0 203 c0 112 -5 220 -11 241 -14 51 -60 101 -112 122 -56 23 -174
27 -271 10z"/>
<path d="M3808 593 c-62 -24 -104 -58 -134 -109 -35 -60 -45 -99 -45 -179 -1
-143 69 -247 190 -282 64 -18 211 -14 271 9 l35 13 -8 63 c-8 59 -11 63 -30
57 -12 -4 -59 -9 -104 -12 -95 -6 -130 4 -168 49 -48 57 -44 58 160 58 l185 0
0 63 c0 172 -87 275 -240 284 -46 2 -79 -2 -112 -14z m149 -133 c21 -12 35
-31 41 -52 l8 -33 -104 -3 c-58 -1 -106 -1 -108 1 -11 11 23 72 50 88 40 24
73 24 113 -1z"/>
<path d="M4904 594 c-165 -60 -235 -291 -138 -460 29 -51 97 -98 166 -114 56
-14 189 -8 252 10 l38 12 -7 46 c-10 73 -15 84 -33 77 -35 -15 -191 -18 -222
-5 -36 15 -70 55 -70 81 0 17 13 19 183 21 l182 3 3 28 c2 16 -2 59 -8 97 -23
136 -106 211 -240 217 -40 1 -81 -3 -106 -13z m162 -148 c19 -19 34 -43 34
-55 0 -20 -5 -21 -106 -21 l-106 0 7 28 c20 82 111 108 171 48z"/>
<path d="M5494 596 c-90 -28 -124 -73 -124 -162 0 -84 25 -119 115 -162 131
-62 140 -67 143 -86 9 -46 -69 -58 -187 -31 -35 9 -65 14 -66 13 -1 -2 -7 -30
-14 -62 -13 -71 -14 -70 80 -87 91 -16 203 -8 256 19 85 44 115 137 71 222
-21 41 -32 50 -128 96 -119 59 -133 73 -105 105 18 19 27 21 90 16 39 -3 79
-8 90 -12 18 -5 22 0 33 51 6 32 8 61 4 65 -13 12 -111 29 -165 28 -29 0 -71
-6 -93 -13z"/>
<path d="M620 398 c0 -108 5 -211 11 -233 15 -55 52 -101 102 -128 36 -19 57
-22 152 -21 61 0 136 6 168 13 l57 12 0 275 0 274 -80 0 -80 0 -2 -217 -3
-218 -49 -3 c-57 -4 -89 10 -105 45 -7 15 -11 95 -11 208 l0 185 -80 0 -80 0
0 -192z"/>
  </g>
  <g transform="translate(0,525) scale(0.1,-0.1)" fill="#ffffff" stroke="none">
    <path d="M2889 4796 c-43 -21 -53 -59 -40 -150 15 -111 14 -149 -6 -190 -16
-30 -24 -36 -63 -41 -189 -26 -389 -122 -537 -258 -34 -31 -46 -37 -57 -28 -8
6 -18 11 -22 10 -25 -4 -44 9 -129 91 -76 74 -99 90 -124 90 -69 0 -96 -83
-43 -132 15 -14 52 -41 82 -59 84 -50 103 -67 125 -106 l20 -36 -52 -106 c-80
-161 -115 -335 -103 -505 4 -60 3 -70 -12 -74 -10 -2 -18 -8 -18 -13 0 -18
-45 -31 -152 -44 -127 -15 -161 -33 -166 -83 -4 -36 34 -82 65 -82 10 0 65 16
123 36 89 30 112 35 157 29 29 -3 53 -11 53 -17 0 -21 79 -178 120 -239 56
-81 169 -195 246 -247 l61 -40 -7 -50 c-4 -35 -23 -76 -63 -143 -65 -107 -74
-156 -35 -183 64 -45 110 -4 158 140 18 53 42 105 54 116 11 10 27 25 35 32
11 11 25 9 87 -10 172 -55 372 -53 560 3 50 15 52 15 82 -7 32 -24 67 -95 96
-192 25 -87 84 -122 136 -80 43 35 34 84 -35 181 -50 70 -64 104 -63 149 0 40
4 44 62 86 67 48 179 158 225 222 38 54 101 168 121 223 14 36 24 46 55 56 38
14 75 6 237 -51 40 -14 50 -14 74 -2 39 18 55 53 42 89 -14 41 -35 49 -165 65
-97 12 -120 18 -148 41 l-34 27 0 116 c0 63 -3 133 -6 155 -19 120 -63 245
-121 345 -28 48 -31 57 -18 71 8 8 14 23 14 31 0 18 34 45 135 108 84 52 94
64 95 112 0 27 -6 41 -22 52 -46 33 -72 22 -172 -74 -65 -61 -102 -90 -118
-90 -13 0 -29 -5 -35 -11 -8 -8 -32 7 -88 54 -139 116 -299 193 -464 222 -47
8 -85 16 -85 18 -1 1 -10 19 -20 40 -18 34 -18 45 -8 131 17 136 16 159 -10
183 -32 28 -51 33 -79 19z m-69 -588 c0 -7 -5 -98 -10 -201 -16 -300 -25 -304
-265 -132 -88 63 -163 115 -167 115 -40 0 73 93 184 150 42 22 111 49 155 59
95 24 103 24 103 9z m272 -3 c91 -19 234 -89 312 -151 l59 -48 -24 -19 c-39
-31 -282 -203 -306 -215 -32 -18 -51 -15 -77 11 -21 21 -23 35 -30 173 -4 82
-9 175 -12 207 -3 31 -3 57 0 57 2 0 38 -7 78 -15z m-751 -432 c47 -43 115
-104 152 -137 74 -64 88 -93 63 -131 -16 -25 -24 -28 -296 -109 l-115 -34 -6
30 c-9 42 0 161 18 238 15 65 80 220 93 220 3 0 44 -35 91 -77z m1282 0 c47
-102 67 -182 74 -304 5 -89 4 -99 -11 -99 -29 0 -369 100 -393 116 -27 17 -39
56 -25 81 11 18 302 282 313 283 3 0 22 -35 42 -77z m-617 -240 c46 -57 46
-59 34 -118 -11 -52 -14 -57 -60 -80 -61 -31 -69 -31 -128 -1 -45 23 -48 27
-60 82 l-12 57 37 49 37 48 61 0 c59 0 63 -1 91 -37z m-372 -315 c9 -12 16
-31 16 -41 0 -11 -31 -94 -69 -186 -37 -91 -71 -174 -74 -183 -10 -27 -22 -22
-89 35 -84 71 -151 155 -199 252 -36 72 -39 80 -22 84 120 25 329 59 370 60
43 1 55 -3 67 -21z m838 -8 c95 -17 174 -33 177 -36 9 -9 -54 -129 -100 -190
-60 -80 -181 -194 -205 -194 -5 0 -27 44 -48 98 -22 53 -52 124 -67 158 -47
106 -54 139 -35 169 22 34 61 33 278 -5z m-509 -147 c8 -10 58 -94 110 -188
63 -112 91 -172 84 -176 -83 -44 -405 -44 -475 0 -11 6 8 47 78 177 51 93 99
177 108 187 8 9 29 17 47 17 18 0 39 -8 48 -17z"/>
  </g>
</svg>
